<?xml version="1.0" encoding="UTF-8" standalone="no"?>
<svg
   xmlns:dc="http://purl.org/dc/elements/1.1/"
   xmlns:cc="http://creativecommons.org/ns#"
   xmlns:rdf="http://www.w3.org/1999/02/22-rdf-syntax-ns#"
   xmlns:svg="http://www.w3.org/2000/svg"
   xmlns="http://www.w3.org/2000/svg"
   xmlns:sodipodi="http://sodipodi.sourceforge.net/DTD/sodipodi-0.dtd"
   xmlns:inkscape="http://www.inkscape.org/namespaces/inkscape"
   width="24"
   height="24"
   viewBox="0 0 24 24"
   fill="none"
   stroke="currentColor"
   stroke-width="2"
   stroke-linecap="round"
   stroke-linejoin="round"
   class="feather feather-cpu"
   version="1.1"
   id="svg22"
   sodipodi:docname="cpu.svg"
   inkscape:export-filename="C:\Prog\lordsk_blog\new_design\cpu_black.png"
   inkscape:export-xdpi="512"
   inkscape:export-ydpi="512"
   inkscape:version="0.92.2 (5c3e80d, 2017-08-06)">
  <metadata
     id="metadata28">
    <rdf:RDF>
      <cc:Work
         rdf:about="">
        <dc:format>image/svg+xml</dc:format>
        <dc:type
           rdf:resource="http://purl.org/dc/dcmitype/StillImage" />
      </cc:Work>
    </rdf:RDF>
  </metadata>
  <defs
     id="defs26" />
  <sodipodi:namedview
     pagecolor="#ffffff"
     bordercolor="#666666"
     borderopacity="1"
     objecttolerance="10"
     gridtolerance="10"
     guidetolerance="10"
     inkscape:pageopacity="0"
     inkscape:pageshadow="2"
     inkscape:window-width="1920"
     inkscape:window-height="1017"
     id="namedview24"
     showgrid="false"
     inkscape:zoom="27.812867"
     inkscape:cx="17.037857"
     inkscape:cy="12.604944"
     inkscape:window-x="-8"
     inkscape:window-y="-8"
     inkscape:window-maximized="1"
     inkscape:current-layer="svg22" />
  <path
     style="color:#000000;font-style:normal;font-variant:normal;font-weight:normal;font-stretch:normal;font-size:medium;line-height:normal;font-family:sans-serif;font-variant-ligatures:normal;font-variant-position:normal;font-variant-caps:normal;font-variant-numeric:normal;font-variant-alternates:normal;font-feature-settings:normal;text-indent:0;text-align:start;text-decoration:none;text-decoration-line:none;text-decoration-style:solid;text-decoration-color:#000000;letter-spacing:normal;word-spacing:normal;text-transform:none;writing-mode:lr-tb;direction:ltr;text-orientation:mixed;dominant-baseline:auto;baseline-shift:baseline;text-anchor:start;white-space:normal;shape-padding:0;clip-rule:nonzero;display:inline;overflow:visible;visibility:visible;opacity:1;isolation:auto;mix-blend-mode:normal;color-interpolation:sRGB;color-interpolation-filters:linearRGB;solid-color:#000000;solid-opacity:1;vector-effect:none;fill:#000000;fill-opacity:1;fill-rule:nonzero;stroke:none;stroke-width:2;stroke-linecap:butt;stroke-linejoin:miter;stroke-miterlimit:4;stroke-dasharray:none;stroke-dashoffset:0;stroke-opacity:1;color-rendering:auto;image-rendering:auto;shape-rendering:auto;text-rendering:auto;enable-background:accumulate"
     d="M 8.984375 -0.013671875 A 1.0001 1.0001 0 0 0 8 1 L 8 3 L 6 3 C 4.3552972 3 3 4.3552972 3 6 L 3 8 L 1 8 A 1.0001 1.0001 0 1 0 1 10 L 3 10 L 3 13 L 1 13 A 1.0001 1.0001 0 1 0 1 15 L 3 15 L 3 18 C 3 19.644703 4.3552972 21 6 21 L 8 21 L 8 23 A 1.0001 1.0001 0 1 0 10 23 L 10 21 L 14 21 L 14 23 A 1.0001 1.0001 0 1 0 16 23 L 16 21 L 18 21 C 19.644703 21 21 19.644703 21 18 L 21 15 L 23 15 A 1.0001 1.0001 0 1 0 23 13 L 21 13 L 21 10 L 23 10 A 1.0001 1.0001 0 1 0 23 8 L 21 8 L 21 6 C 21 4.3552972 19.644703 3 18 3 L 16 3 L 16 1 A 1.0001 1.0001 0 0 0 14.984375 -0.013671875 A 1.0001 1.0001 0 0 0 14 1 L 14 3 L 10 3 L 10 1 A 1.0001 1.0001 0 0 0 8.984375 -0.013671875 z M 6 5 L 8.8320312 5 A 1.0001 1.0001 0 0 0 9.1582031 5 L 14.832031 5 A 1.0001 1.0001 0 0 0 15.158203 5 L 18 5 C 18.571297 5 19 5.4287028 19 6 L 19 8.8320312 A 1.0001 1.0001 0 0 0 19 9.1582031 L 19 13.832031 A 1.0001 1.0001 0 0 0 19 14.158203 L 19 18 C 19 18.571297 18.571297 19 18 19 L 15.154297 19 A 1.0001 1.0001 0 0 0 14.984375 18.986328 A 1.0001 1.0001 0 0 0 14.839844 19 L 9.1542969 19 A 1.0001 1.0001 0 0 0 8.984375 18.986328 A 1.0001 1.0001 0 0 0 8.8398438 19 L 6 19 C 5.4287028 19 5 18.571297 5 18 L 5 14.167969 A 1.0001 1.0001 0 0 0 5 13.841797 L 5 9.1679688 A 1.0001 1.0001 0 0 0 5 8.8417969 L 5 6 C 5 5.4287028 5.4287028 5 6 5 z M 9 8 A 1.0001 1.0001 0 0 0 8 9 L 8 15 A 1.0001 1.0001 0 0 0 9 16 L 15 16 A 1.0001 1.0001 0 0 0 16 15 L 16 9 A 1.0001 1.0001 0 0 0 15 8 L 9 8 z M 10 10 L 14 10 L 14 14 L 10 14 L 10 10 z "
     id="rect2" />
</svg>
